<svg width="24" height="25" viewBox="0 0 24 25" fill="none" xmlns="http://www.w3.org/2000/svg">
<path d="M12.69 12.56C12.5062 12.7258 12.2675 12.8176 12.02 12.8176C11.7725 12.8176 11.5337 12.7258 11.35 12.56L2.87 4.85C3.20275 4.62206 3.59665 4.50005 4 4.5H20C20.4033 4.50005 20.7972 4.62206 21.13 4.85L12.69 12.56Z" fill="white"/>
<path d="M22 6.76001V17.5C22 18.2957 21.6839 19.0587 21.1213 19.6213C20.5587 20.1839 19.7956 20.5 19 20.5H5C4.20435 20.5 3.44129 20.1839 2.87868 19.6213C2.31607 19.0587 2 18.2957 2 17.5V6.76001L10.68 14.68C11.0461 14.9979 11.5152 15.1721 12 15.17C12.4909 15.169 12.9643 14.9875 13.33 14.66L22 6.76001Z" fill="white"/>
</svg>
