<svg width="30" height="32" viewBox="0 0 30 32" fill="none" xmlns="http://www.w3.org/2000/svg">
<g clip-path="url(#clip0_1_15)">
<path d="M15 1.17444C6.71512 1.17444 0 7.88955 0 16.1744C0 24.4593 6.71512 31.1744 15 31.1744C23.2849 31.1744 30 24.4593 30 16.1744C30 7.88955 23.2849 1.17444 15 1.17444ZM10.4302 24.0407H6.77616V12.2936H10.4302V24.0407ZM8.59884 10.6803C7.43023 10.6803 6.47965 9.72967 6.47965 8.56107C6.47965 7.39246 7.43023 6.44188 8.59884 6.44188C9.76744 6.44188 10.718 7.39246 10.718 8.56107C10.718 9.72967 9.76744 10.6803 8.59884 10.6803ZM24.0959 24.0407H20.4506V18.3285C20.4506 16.968 20.4244 15.2151 18.5494 15.2151C16.6483 15.2151 16.3605 16.6977 16.3605 18.2326V24.0494H12.7151V12.2936H16.2209V13.8983H16.2645C16.9797 12.6773 18.3052 11.9448 19.718 11.9971C23.4157 11.9971 24.0959 14.4303 24.0959 17.5959V24.0407Z" fill="white"/>
</g>
<defs>
<clipPath id="clip0_1_15">
<rect width="30" height="30.1744" fill="white" transform="translate(0 0.912781)"/>
</clipPath>
</defs>
</svg>
