<svg width="30" height="31" viewBox="0 0 30 31" fill="none" xmlns="http://www.w3.org/2000/svg">
<g clip-path="url(#clip0_1_7)">
<path d="M30 16.004C30 23.4903 24.5075 29.6965 17.3375 30.8228V20.369H20.8237L21.4875 16.044H17.3375V13.2378C17.3375 12.054 17.9175 10.9015 19.775 10.9015H21.6613V7.21903C21.6613 7.21903 19.9487 6.92653 18.3125 6.92653C14.895 6.92653 12.6625 8.99778 12.6625 12.7465V16.0428H8.86375V20.3678H12.6625V30.8215C5.49375 29.694 0 23.489 0 16.004C0 7.72028 6.71625 1.00403 15 1.00403C23.2838 1.00403 30 7.71903 30 16.004Z" fill="white"/>
</g>
<defs>
<clipPath id="clip0_1_7">
<rect width="30" height="30" fill="white" transform="translate(0 0.912781)"/>
</clipPath>
</defs>
</svg>
