<svg width="30" height="31" viewBox="0 0 30 31" fill="none" xmlns="http://www.w3.org/2000/svg">
<g clip-path="url(#clip0_1_10)">
<path d="M15 3.61528C19.005 3.61528 19.48 3.63028 21.0613 3.70278C22.6963 3.77778 24.38 4.15028 25.5713 5.34153C26.7738 6.54403 27.135 8.21153 27.21 9.85153C27.2825 11.4328 27.2975 11.9078 27.2975 15.9128C27.2975 19.9178 27.2825 20.3928 27.21 21.974C27.1362 23.6003 26.755 25.3003 25.5713 26.484C24.3688 27.6865 22.7025 28.0478 21.0613 28.1228C19.48 28.1953 19.005 28.2103 15 28.2103C10.995 28.2103 10.52 28.1953 8.93875 28.1228C7.325 28.049 5.6025 27.659 4.42875 26.484C3.2325 25.2878 2.865 23.604 2.79 21.974C2.7175 20.3928 2.7025 19.9178 2.7025 15.9128C2.7025 11.9078 2.7175 11.4328 2.79 9.85153C2.86375 8.23153 3.24875 6.52153 4.42875 5.34153C5.62875 4.14153 7.3025 3.77778 8.93875 3.70278C10.52 3.63028 10.995 3.61528 15 3.61528ZM15 0.912781C10.9262 0.912781 10.415 0.930281 8.815 1.00278C6.49625 1.10903 4.19375 1.75403 2.5175 3.43028C0.835 5.11278 0.19625 7.41028 0.09 9.72778C0.0175 11.3278 0 11.839 0 15.9128C0 19.9865 0.0175 20.4978 0.09 22.0978C0.19625 24.414 0.84375 26.7228 2.5175 28.3953C4.19875 30.0765 6.5 30.7165 8.815 30.8228C10.415 30.8953 10.9262 30.9128 15 30.9128C19.0737 30.9128 19.585 30.8953 21.185 30.8228C23.5025 30.7165 25.8075 30.0703 27.4825 28.3953C29.1663 26.7115 29.8037 24.4153 29.91 22.0978C29.9825 20.4978 30 19.9865 30 15.9128C30 11.839 29.9825 11.3278 29.91 9.72778C29.8037 7.40903 29.1575 5.10528 27.4825 3.43028C25.8037 1.75153 23.4963 1.10778 21.185 1.00278C19.585 0.930281 19.0737 0.912781 15 0.912781Z" fill="white"/>
<path d="M15 8.21027C10.7462 8.21027 7.29749 11.659 7.29749 15.9128C7.29749 20.1665 10.7462 23.6153 15 23.6153C19.2537 23.6153 22.7025 20.1665 22.7025 15.9128C22.7025 11.659 19.2537 8.21027 15 8.21027ZM15 20.9128C12.2387 20.9128 9.99999 18.674 9.99999 15.9128C9.99999 13.1515 12.2387 10.9128 15 10.9128C17.7612 10.9128 20 13.1515 20 15.9128C20 18.674 17.7612 20.9128 15 20.9128Z" fill="white"/>
<path d="M23.0075 9.70529C24.0016 9.70529 24.8075 8.8994 24.8075 7.90529C24.8075 6.91117 24.0016 6.10529 23.0075 6.10529C22.0134 6.10529 21.2075 6.91117 21.2075 7.90529C21.2075 8.8994 22.0134 9.70529 23.0075 9.70529Z" fill="white"/>
</g>
<defs>
<clipPath id="clip0_1_10">
<rect width="30" height="30" fill="white" transform="translate(0 0.912781)"/>
</clipPath>
</defs>
</svg>
