<svg width="51" height="54" viewBox="0 0 51 54" fill="none" xmlns="http://www.w3.org/2000/svg">
<g clip-path="url(#clip0_1_17)">
<path d="M37.5126 14.3186L37.4519 14.0907C36.5553 10.7393 34.3753 7.88283 31.39 6.14784C28.4047 4.41285 24.8579 3.94103 21.5276 4.83587L12.5575 7.2577C9.22933 8.16058 6.39266 10.3559 4.66972 13.362C2.94678 16.3682 2.47823 19.9398 3.36686 23.2934L6.67022 35.7001C7.45593 38.6715 9.13627 41.3248 11.4803 43.2954L12.8443 44.4464L13.2083 45.8136C13.7196 47.7291 14.9653 49.3618 16.6716 50.3527C18.3778 51.3436 20.405 51.6117 22.3075 51.098L38.4494 46.7399C40.3527 46.226 41.9754 44.9718 42.9603 43.2532C43.9453 41.5347 44.212 39.4924 43.7017 37.5758L43.3935 36.4183L44.0795 35.2902C45.1264 33.5582 45.8143 31.6307 46.1017 29.6238C46.3892 27.6169 46.2702 25.5722 45.752 23.6129L44.7541 19.8652C44.3258 18.2641 43.3823 16.8512 42.0714 15.8477C40.7605 14.8442 39.1562 14.3067 37.5096 14.3194L37.5126 14.3186ZM37.4902 43.1251L21.3453 47.484C20.8742 47.6112 20.3828 47.6437 19.8992 47.5797C19.4156 47.5157 18.9493 47.3563 18.5269 47.1108C17.6737 46.615 17.0511 45.7982 16.796 44.8401L40.1173 38.5436C40.2436 39.0181 40.2759 39.5131 40.2123 40.0001C40.1486 40.4872 39.9903 40.9569 39.7463 41.3824C39.5023 41.8078 39.1775 42.1807 38.7904 42.4797C38.4033 42.7787 37.9615 42.998 37.4902 43.1251ZM42.1676 24.5807C42.5556 26.0503 42.6443 27.5838 42.4284 29.0889C42.2125 30.5939 41.6964 32.0395 40.9112 33.3384L40.0994 34.6746L15.0599 41.435L13.865 40.4273C12.1062 38.9476 10.8454 36.9558 10.256 34.7255L8.61992 28.5806C9.87924 28.923 11.2061 28.9237 12.4658 28.5827L25.0233 25.1923C25.499 25.0639 25.9046 24.7504 26.1508 24.3209C26.397 23.8913 26.4636 23.3809 26.3361 22.9018C26.2085 22.4228 25.8972 22.0144 25.4707 21.7664C25.0441 21.5185 24.5372 21.4514 24.0615 21.5798L11.5055 24.9698C11.0342 25.0973 10.5425 25.13 10.0587 25.066C9.57481 25.002 9.10821 24.8427 8.68555 24.597C8.26288 24.3514 7.89243 24.0243 7.59537 23.6344C7.29831 23.2445 7.08046 22.7995 6.95428 22.3248C6.31945 19.9293 6.65412 17.378 7.88486 15.2306C9.11561 13.0832 11.1419 11.5151 13.5193 10.8702L22.4894 8.44837C24.8683 7.80911 27.4019 8.14611 29.5344 9.38546C31.6668 10.6248 33.2241 12.6653 33.8645 15.0593L33.9252 15.2872C32.4931 16.1057 31.371 17.3793 30.7344 18.9086C30.0979 20.4379 29.9829 22.1365 30.4075 23.7387L31.8502 29.1574C31.9778 29.6365 32.2891 30.0449 32.7157 30.2928C33.1422 30.5407 33.6491 30.6078 34.1249 30.4794C34.6006 30.3509 35.0061 30.0375 35.2523 29.6079C35.4985 29.1784 35.5652 28.6679 35.4376 28.1889L33.9949 22.7701C33.7397 21.8118 33.8731 20.7907 34.3656 19.9314C34.8581 19.0721 35.6694 18.445 36.621 18.1881C37.5727 17.9311 38.5867 18.0654 39.44 18.5613C40.2933 19.0573 40.9161 19.8743 41.1712 20.8326L42.1676 24.5807Z" fill="#B11022"/>
<line x1="0.00495025" y1="51.5" x2="203.005" y2="53.5099" stroke="black"/>
</g>
<defs>
<clipPath id="clip0_1_17">
<rect width="51" height="54" fill="white"/>
</clipPath>
</defs>
</svg>
